<?xml version="1.0" encoding="utf-8"?>
<svg width="800px" height="800px" viewBox="0 0 1024 1024" class="icon" version="1.1"
  xmlns="http://www.w3.org/2000/svg">
  <path d="M554.666667 64h-85.333334a21.333333 21.333333 0 0 0-21.333333 21.333333v85.333334a21.333333 21.333333 0 0 0 21.333333 21.333333h85.333334a21.333333 21.333333 0 0 0 21.333333-21.333333V85.333333a21.333333 21.333333 0 0 0-21.333333-21.333333z" fill="#B3B3B3" />
  <path d="M896 149.333333H128a21.333333 21.333333 0 0 0-21.333333 21.333334v597.333333a21.333333 21.333333 0 1 0 42.666666 0h725.333334a21.333333 21.333333 0 1 0 42.666666 0V170.666667a21.333333 21.333333 0 0 0-21.333333-21.333334z" fill="#E6E6E6" />
  <path d="M512 960a21.333333 21.333333 0 0 1-21.333333-21.333333v-170.666667a21.333333 21.333333 0 1 1 42.666666 0v170.666667a21.333333 21.333333 0 0 1-21.333333 21.333333zM255.978667 1002.666667a21.333333 21.333333 0 0 1-16.64-34.666667l170.666666-213.333333a21.333333 21.333333 0 0 1 33.344 26.645333l-170.666666 213.333333a21.333333 21.333333 0 0 1-16.704 8.021334zM768.021333 1002.666667a21.333333 21.333333 0 0 1-16.682666-8l-170.666667-213.333334a21.333333 21.333333 0 0 1 33.322667-26.666666l170.666666 213.333333a21.333333 21.333333 0 0 1-16.64 34.666667z" fill="#B3B3B3" />
  <path d="M981.333333 789.333333H42.666667a21.333333 21.333333 0 1 1 0-42.666666h938.666666a21.333333 21.333333 0 1 1 0 42.666666z" fill="#898989" />
  <path d="M533.333333 277.333333h-42.666666a21.333333 21.333333 0 0 0-21.333334 21.333334v298.666666a21.333333 21.333333 0 0 0 21.333334 21.333334h42.666666a21.333333 21.333333 0 0 0 21.333334-21.333334V298.666667a21.333333 21.333333 0 0 0-21.333334-21.333334zM362.666667 448h-42.666667a21.333333 21.333333 0 0 0-21.333333 21.333333v128a21.333333 21.333333 0 0 0 21.333333 21.333334h42.666667a21.333333 21.333333 0 0 0 21.333333-21.333334v-128a21.333333 21.333333 0 0 0-21.333333-21.333333zM704 405.333333h-42.666667a21.333333 21.333333 0 0 0-21.333333 21.333334v170.666666a21.333333 21.333333 0 0 0 21.333333 21.333334h42.666667a21.333333 21.333333 0 0 0 21.333333-21.333334v-170.666666a21.333333 21.333333 0 0 0-21.333333-21.333334z" fill="#43A6DD" />
</svg>